HIERARCHY
ROOT Hips
{
    OFFSET 0.000000 0.000000 0.000000
    CHANNELS 6 Xposition Yposition Zposition Zrotation Xrotation Yrotation
    JOINT Spine
    {
        OFFSET -0.000000 14.517291 0.000000
        CHANNELS 3 Zrotation Xrotation Yrotation
        JOINT Spine1
        {
            OFFSET -0.000000 37.558300 0.000000
            CHANNELS 3 Zrotation Xrotation Yrotation
            JOINT Neck
            {
                OFFSET -0.000000 37.404057 3.400369
                CHANNELS 3 Zrotation Xrotation Yrotation
                JOINT Head
                {
                    OFFSET -0.000000 24.785618 -3.540803
                    CHANNELS 3 Zrotation Xrotation Yrotation
                    End Site
                    {
                        OFFSET -0.000000 35.408028 0.000000
                    }
                }
            }
            JOINT LeftShoulder
            {
                OFFSET 6.992933 33.973492 -0.192664
                CHANNELS 3 Zrotation Xrotation Yrotation
                JOINT LeftArm
                {
                    OFFSET 21.527611 0.000000 0.000000
                    CHANNELS 3 Zrotation Xrotation Yrotation
                    JOINT LeftForeArm
                    {
                        OFFSET 56.353916 0.000000 0.000000
                        CHANNELS 3 Zrotation Xrotation Yrotation
                        JOINT LeftHand
                        {
                            OFFSET 47.774071 0.000000 0.000000
                            CHANNELS 3 Zrotation Xrotation Yrotation
                            End Site
                            {
                                OFFSET 26.556021 0.000000 0.000000
                            }
                        }
                    }
                }
            }
            JOINT RightShoulder
            {
                OFFSET -7.065357 33.973492 -0.192664
                CHANNELS 3 Zrotation Xrotation Yrotation
                JOINT RightArm
                {
                    OFFSET -21.527611 0.000000 0.000000
                    CHANNELS 3 Zrotation Xrotation Yrotation
                    JOINT RightForeArm
                    {
                        OFFSET -56.353916 0.000000 0.000000
                        CHANNELS 3 Zrotation Xrotation Yrotation
                        JOINT RightHand
                        {
                            OFFSET -47.774071 0.000000 0.000000
                            CHANNELS 3 Zrotation Xrotation Yrotation
                            End Site
                            {
                                OFFSET -26.556021 0.000000 0.000000
                            }
                        }
                    }
                }
            }
        }
    }
    JOINT LeftUpLeg
    {
        OFFSET 17.704014 0.000000 0.000000
        CHANNELS 3 Zrotation Xrotation Yrotation
        JOINT LeftLeg
        {
            OFFSET -0.000000 -81.181816 0.000000
            CHANNELS 3 Zrotation Xrotation Yrotation
            JOINT LeftFoot
            {
                OFFSET -0.000000 -62.821102 0.000000
                CHANNELS 3 Zrotation Xrotation Yrotation
                JOINT LeftToeBase
                {
                    OFFSET -0.000000 -11.507608 26.556021
                    CHANNELS 3 Zrotation Xrotation Yrotation
                    End Site
                    {
                        OFFSET -0.000000 0.000000 7.081605
                    }
                }
            }
        }
    }
    JOINT RightUpLeg
    {
        OFFSET -17.704014 0.000000 0.000000
        CHANNELS 3 Zrotation Xrotation Yrotation
        JOINT RightLeg
        {
            OFFSET -0.000000 -81.181816 0.000000
            CHANNELS 3 Zrotation Xrotation Yrotation
            JOINT RightFoot
            {
                OFFSET -0.000000 -62.821102 0.000000
                CHANNELS 3 Zrotation Xrotation Yrotation
                JOINT RightToeBase
                {
                    OFFSET -0.000000 -11.507608 26.556021
                    CHANNELS 3 Zrotation Xrotation Yrotation
                    End Site
                    {
                        OFFSET -0.000000 0.000000 7.081605
                    }
                }
            }
        }
    }
}
MOTION
Frames:    12
Frame Time:    0.008333
9.238000    154.200928    -21.462681    -2.488949    1.764307    -25.783325    8.010126    3.577457    19.266018    -6.277074    -2.535123    6.366498    7.068806    -3.745018    -1.734836    1.719308    7.618012    -2.961833    1.054540    1.159388    -3.602777    -47.617271    11.593937    -32.590080    -6.138251    -16.818769    -126.685646    -0.806099    -28.132925    -2.126462    -16.534189    -0.896414    11.343137    31.608152    -19.986057    79.423492    3.908281    -17.468382    16.231594    12.284774    -13.306711    43.115597    21.963444    -28.628040    2.318573    -15.549177    25.192787    -8.857929    -3.963130    4.473829    41.060558    0.000000    0.000000    0.000000    -11.857809    6.843400    -39.210361    3.163825    27.005634    -14.230688    2.718986    -12.315562    -22.341291    0.000000    0.000000    0.000000    
9.263280    154.203888    -21.481661    -2.474097    1.775955    -25.745581    8.002670    3.551285    19.232658    -6.269996    -2.516910    6.355846    7.079074    -3.736274    -1.741502    1.741294    7.597487    -2.968116    1.073984    1.160756    -3.593468    -47.636318    11.615624    -32.610271    -6.132771    -16.848192    -126.685989    -0.797674    -28.150391    -2.109332    -16.504976    -0.899515    11.337144    31.611013    -19.987995    79.395943    3.921332    -17.446159    16.269585    12.271613    -13.289879    43.135593    21.929638    -28.642231    2.284420    -15.509663    25.150110    -8.817279    -4.056210    4.437818    41.017029    0.000000    0.000000    0.000000    -11.863409    6.826948    -39.195030    3.154103    26.999119    -14.215170    2.863293    -12.317427    -22.366735    0.000000    0.000000    0.000000    
9.291932    154.208023    -21.501080    -2.460904    1.788634    -25.717352    7.990255    3.531165    19.208618    -6.245964    -2.511949    6.348031    7.060683    -3.736678    -1.753752    1.780808    7.605844    -2.974610    1.077785    1.155787    -3.597682    -47.649475    11.645084    -32.606823    -6.127059    -16.872919    -126.681351    -0.798220    -28.161901    -2.097084    -16.492416    -0.895432    11.329931    31.597353    -19.979620    79.363701    3.939165    -17.431168    16.293264    12.232924    -13.290662    43.154762    21.914557    -28.647961    2.273410    -15.499032    25.097607    -8.762773    -4.108024    4.417879    40.942242    0.000000    0.000000    0.000000    -11.874165    6.810199    -39.108906    3.184899    26.995396    -14.201889    3.000892    -12.318256    -22.442839    0.000000    0.000000    0.000000    
9.320143    154.210251    -21.522287    -2.454113    1.804516    -25.694460    7.978152    3.515751    19.184469    -6.220020    -2.512987    6.340012    7.066354    -3.728197    -1.765718    1.791028    7.598502    -2.986685    1.089135    1.145694    -3.599912    -47.657402    11.652967    -32.592247    -6.141081    -16.846355    -126.680603    -0.767675    -28.162771    -2.085900    -16.483778    -0.895888    11.331232    31.587507    -19.983900    79.321175    3.961909    -17.388220    16.330610    12.221052    -13.254061    43.170277    21.909084    -28.654245    2.299277    -15.485837    25.048401    -8.714649    -4.133353    4.422789    40.869167    0.000000    0.000000    0.000000    -11.875260    6.797155    -38.997746    3.231011    26.981716    -14.210776    3.142186    -12.334188    -22.529451    0.000000    0.000000    0.000000    
9.352478    154.212875    -21.540318    -2.450537    1.811427    -25.676825    7.974310    3.506237    19.159723    -6.202991    -2.503546    6.332391    7.066632    -3.716718    -1.777066    1.807101    7.593684    -2.996525    1.095434    1.148473    -3.594569    -47.661957    11.663390    -32.598610    -6.142768    -16.835394    -126.671936    -0.764623    -28.153643    -2.086726    -16.475590    -0.899213    11.326534    31.594402    -19.999310    79.293655    4.006166    -17.307114    16.352339    12.206024    -13.184336    43.168785    21.900116    -28.652700    2.349745    -15.459444    25.013571    -8.754316    -4.156399    4.422165    40.850517    0.000000    0.000000    0.000000    -11.877367    6.796856    -38.906208    3.261338    26.957985    -14.256705    3.323629    -12.345335    -22.542973    0.000000    0.000000    0.000000    
9.384374    154.212112    -21.553802    -2.446386    1.818043    -25.663282    7.970567    3.501109    19.136236    -6.194295    -2.501544    6.324703    7.068688    -3.728201    -1.776179    1.831290    7.626462    -2.995379    1.109135    1.145220    -3.605669    -47.667133    11.682269    -32.579662    -6.137977    -16.844519    -126.672447    -0.762615    -28.153530    -2.089804    -16.457405    -0.891542    11.327387    31.548264    -20.002544    79.250725    4.025244    -17.282660    16.387775    12.183331    -13.173264    43.159626    21.887659    -28.652925    2.411499    -15.422900    24.992271    -8.810722    -4.162770    4.424000    40.828022    0.000000    0.000000    0.000000    -11.882163    6.810743    -38.823048    3.302397    26.915169    -14.300004    3.506242    -12.362296    -22.551025    0.000000    0.000000    0.000000    
9.418718    154.210251    -21.563566    -2.450707    1.818051    -25.652817    7.964771    3.503447    19.118134    -6.164567    -2.499669    6.319410    7.066204    -3.720942    -1.787137    1.832472    7.628635    -3.005822    1.103574    1.153332    -3.617642    -47.662491    11.676462    -32.573032    -6.148787    -16.814135    -126.671829    -0.761957    -28.144854    -2.077490    -16.464415    -0.892270    11.309751    31.522522    -19.984951    79.221191    4.032370    -17.250498    16.405851    12.164048    -13.150315    43.154095    21.876865    -28.652092    2.481781    -15.384450    24.995842    -8.891765    -4.172823    4.406248    40.823627    0.000000    0.000000    0.000000    -11.882250    6.837132    -38.794746    3.306489    26.870424    -14.282126    3.717802    -12.377736    -22.556808    0.000000    0.000000    0.000000    
9.454635    154.211273    -21.570175    -2.452130    1.817293    -25.640373    7.960917    3.508399    19.094877    -6.149770    -2.500256    6.312034    7.076935    -3.725610    -1.793152    1.825963    7.650075    -3.015193    1.111739    1.147941    -3.631216    -47.670349    11.680371    -32.548306    -6.146626    -16.790997    -126.667786    -0.786816    -28.118166    -2.084178    -16.459848    -0.885114    11.295041    31.500303    -19.978912    79.202721    4.046541    -17.246916    16.420048    12.171653    -13.146358    43.152569    21.860207    -28.653759    2.510051    -15.359735    24.987730    -8.965473    -4.164955    4.408797    40.833588    0.000000    0.000000    0.000000    -11.875676    6.869137    -38.799797    3.293064    26.804502    -14.294055    3.868484    -12.377554    -22.492088    0.000000    0.000000    0.000000    
9.490299    154.210510    -21.575838    -2.449189    1.827343    -25.625120    7.946270    3.486598    19.072296    -6.107912    -2.491254    6.305251    7.082067    -3.708070    -1.800736    1.812369    7.648323    -3.023930    1.104767    1.150962    -3.648802    -47.670044    11.686284    -32.528999    -6.139844    -16.775166    -126.657318    -0.810558    -28.088369    -2.107486    -16.461126    -0.870109    11.284945    31.474470    -19.979652    79.182594    4.053783    -17.233524    16.429045    12.188144    -13.126601    43.160812    21.843197    -28.668007    2.522204    -15.338350    24.976326    -9.008396    -4.178237    4.403331    40.837982    0.000000    0.000000    0.000000    -11.872727    6.890920    -38.822910    3.283504    26.746164    -14.332701    4.004596    -12.380548    -22.371969    0.000000    0.000000    0.000000    
9.528067    154.213257    -21.578739    -2.451663    1.834614    -25.608608    7.950596    3.479418    19.046423    -6.097289    -2.487092    6.296952    7.086389    -3.715195    -1.806368    1.819300    7.678546    -3.030984    1.112080    1.152380    -3.669503    -47.671272    11.689312    -32.505070    -6.143719    -16.757612    -126.657341    -0.826018    -28.078838    -2.113230    -16.454515    -0.859482    11.263333    31.470362    -19.976564    79.179222    4.064884    -17.221167    16.432135    12.178123    -13.121825    43.142181    21.821875    -28.685707    2.516710    -15.312128    24.978012    -9.061325    -4.178625    4.400712    40.863567    0.000000    0.000000    0.000000    -11.866947    6.917087    -38.846748    3.283638    26.681557    -14.335662    4.114359    -12.372892    -22.314289    0.000000    0.000000    0.000000    
9.570387    154.216980    -21.585419    -2.445507    1.852007    -25.591787    7.950439    3.457965    19.021355    -6.080060    -2.476721    6.289025    7.107821    -3.717792    -1.812953    1.782454    7.691981    -3.044943    1.112049    1.152544    -3.683319    -47.663746    11.696136    -32.489353    -6.137363    -16.748945    -126.644707    -0.877172    -28.055702    -2.135438    -16.453306    -0.863310    11.250932    31.459812    -19.963127    79.165115    4.039305    -17.204044    16.433420    12.187482    -13.102541    43.097397    21.797476    -28.719654    2.496534    -15.291962    24.977451    -9.119017    -4.205606    4.393548    40.920139    0.000000    0.000000    0.000000    -11.864316    6.920827    -38.871243    3.273134    26.631165    -14.314822    4.212804    -12.363588    -22.270725    0.000000    0.000000    0.000000    
9.612674    154.220337    -21.586546    -2.444520    1.863205    -25.574976    7.954026    3.445126    18.997036    -6.072029    -2.468398    6.281268    7.122930    -3.727831    -1.821019    1.774978    7.715897    -3.057662    1.125713    1.146238    -3.704831    -47.661831    11.721276    -32.468086    -6.128079    -16.760334    -126.641624    -0.844839    -28.049643    -2.119014    -16.436083    -0.857119    11.237235    31.451138    -19.968037    79.151169    4.045292    -17.223536    16.432915    12.217270    -13.109844    43.112545    21.773111    -28.747641    2.467429    -15.279705    24.981668    -9.128705    -4.223581    4.381898    40.940987    0.000000    0.000000    0.000000    -11.863519    6.929151    -38.880016    3.273964    26.590954    -14.290103    4.260490    -12.363943    -22.237614    0.000000    0.000000    0.000000    
